# xmcd
#
# Track frame offsets:
# 150
# 12590
# 26882
# 39727
# 52960
# 65455
# 80085
# 93497
# 104962
# 116180
# 127205
# 139512
# 150317
# 166172
# 172325
#
# Disc length: 2512 seconds
#
#
# Revision: 0
# Processed by: cddbd v1.5.1PL0 Copyright (c) Steve Scherf et al.
# Submitted via: FreeRIP 2.35 
#
DISCID=db09ce0f
DTITLE=Bill Jennings - Stompin' With Bill
DYEAR=1954
DGENRE=Blues
TTITLE0=Stompin' With Bill
TTITLE1=Lonesome Traveller
TTITLE2=You Came A Long Way From St. Louis
TTITLE3=Alexandria, VA.
TTITLE4=Stompin' With Bill (Alt Version)
TTITLE5=St. Louis Blues
TTITLE6=Frankie and Johnny Boogie
TTITLE7=Real Choice Blues
TTITLE8=I Let A Song Go Out Of My Heart
TTITLE9=Temptation
TTITLE10=Flat Foot Floojie
TTITLE11=Roll On
TTITLE12=Bittersweet
TTITLE13=Ray's Blues (Take 1)
TTITLE14=Ray's Blues (Take 2)
EXTD=Collectables Records COL-5338
EXTT0=
EXTT1=
EXTT2=
EXTT3=
EXTT4=
EXTT5=
EXTT6=
EXTT7=
EXTT8=
EXTT9=
EXTT10=
EXTT11=
EXTT12=
EXTT13=
EXTT14=
PLAYORDER=
